<svg xmlns="http://www.w3.org/2000/svg" viewBox="0 0 906.4 341">
  <defs>
    <linearGradient
      id="b"
      x1="322.4"
      x2="-18.6"
      y1="321"
      y2="-20"
      gradientTransform="matrix(1 0 0 -1 19 321)"
      gradientUnits="userSpaceOnUse"
    >
      <stop offset="0" stop-color="#00fdf1" />
      <stop offset="1" stop-color="#0cf" />
    </linearGradient>
    <clipPath id="a" transform="translate(19 24)">
      <path
        fill="none"
        d="M287 0v69a70 70 0 01-70 70h-3-2c-46 2-63 31-69 53a77 77 0 00-3 15 80 80 0 00-1 10 69 69 0 11-69-69 76 76 0 0010-1 77 77 0 0015-3c22-6 51-24 53-69v-3-2a70 70 0 0169-70h70zM154 221a66 66 0 1066-67 66 66 0 00-66 67zM0 66A66 66 0 1066 0 66 66 0 000 66z"
      />
    </clipPath>
    <style>
      .d {
        fill: #333338;
      }
    </style>
  </defs>
  <g clip-path="url(#a)"><path fill="url(#b)" d="M0 0h341v341H0z" /></g>
  <path
    d="M478 224a2 2 0 01-1 3c-7 5-17 7-27 7-28 0-44-15-44-43v-59a2 2 0 00-2-2h-17a2 2 0 01-2-3v-19a2 2 0 012-2h17a2 2 0 002-3V79a2 2 0 012-3h26a2 2 0 012 3v24a2 2 0 002 3h30a2 2 0 012 2v19a2 2 0 01-2 3h-30a2 2 0 00-2 2v58c0 13 6 20 18 20a28 28 0 0014-4 2 2 0 013 1zM617 105a2 2 0 012 3l-58 135c-12 29-28 38-49 38-12 0-25-4-33-11a2 2 0 01-1-3l10-18a2 2 0 013 0 33 33 0 0020 7c11 0 17-5 23-18l2-4a2 2 0 000-2l-54-124a2 2 0 012-3h26a2 2 0 012 1l37 88a2 2 0 005 0l37-88a2 2 0 013-1zM690 179l-20 19a2 2 0 00-1 2v30a2 2 0 01-2 3h-25a2 2 0 01-3-3V57a2 2 0 013-2h25a2 2 0 012 2v100a2 2 0 004 2l58-54a2 2 0 011 0h30a2 2 0 011 4l-48 48a2 2 0 000 3l54 69a2 2 0 01-1 4h-31a2 2 0 01-2-1l-42-52a2 2 0 00-3-1zM904 178h-96a2 2 0 00-2 3c5 17 20 28 41 28 14 0 24-4 33-12a2 2 0 013 0l13 15a2 2 0 010 3 66 66 0 01-50 19c-37 0-62-20-69-50a67 67 0 0178-80c30 6 51 30 51 65v7a2 2 0 01-2 2zm-96-20h67a2 2 0 002-2c-3-17-17-29-35-29-19 0-32 11-36 29a2 2 0 002 2z"
    class="d"
  />
</svg>
